<?xml version="1.0" standalone="no"?>
<!DOCTYPE svg PUBLIC "-//W3C//DTD SVG 20010904//EN"
 "http://www.w3.org/TR/2001/REC-SVG-20010904/DTD/svg10.dtd">
<svg version="1.0" xmlns="http://www.w3.org/2000/svg"
 width="52.000000pt" height="48.000000pt" viewBox="0 0 52.000000 48.000000"
 preserveAspectRatio="xMidYMid meet">

<g transform="translate(0.000000,48.000000) scale(0.100000,-0.100000)"
fill="#000000" stroke="none">
<path d="M88 389 c-16 -9 -18 -28 -18 -169 0 -147 1 -160 19 -170 12 -6 92
-10 190 -10 158 0 171 1 181 19 13 26 13 296 0 322 -10 18 -23 19 -183 19 -98
0 -180 -5 -189 -11z m361 -13 c7 -8 11 -27 9 -43 l-3 -28 -185 0 -185 0 -3 28
c-6 54 5 57 188 57 134 0 170 -3 179 -14z m11 -194 c0 -71 -4 -112 -12 -120
-17 -17 -339 -17 -356 0 -8 8 -12 49 -12 120 l0 108 190 0 190 0 0 -108z"/>
<path d="M106 363 c-13 -14 -5 -33 14 -33 11 0 20 6 20 14 0 15 -24 28 -34 19z"/>
<path d="M167 354 c-9 -10 2 -24 19 -24 8 0 14 7 14 15 0 15 -21 21 -33 9z"/>
<path d="M230 345 c0 -10 7 -15 18 -13 21 4 19 22 -2 26 -10 2 -16 -3 -16 -13z"/>
<path d="M275 238 c-7 -21 -24 -102 -25 -117 0 -33 14 4 25 64 11 59 11 84 0
53z"/>
<path d="M200 202 l-21 -17 25 -24 c14 -14 26 -19 26 -13 0 6 -8 15 -17 21
-17 9 -16 11 1 30 23 26 16 27 -14 3z"/>
<path d="M326 199 c18 -20 18 -21 0 -35 -11 -7 -18 -16 -15 -18 2 -2 15 4 28
15 23 19 23 20 6 39 -10 11 -23 20 -28 20 -6 0 -2 -9 9 -21z"/>
</g>
</svg>
